# xmcd
#
# Track frame offsets: 
#        150
#        27111
#        49101
#        69731
#        87516
#        110579
#        129871
#        150217
#        175828
#        195856
#
# Disc length: 2927 seconds
#
# Revision: 5
# Processed by: cddbd v1.5.1PL0 Copyright (c) Steve Scherf et al.
# Submitted via: ExactAudioCopy v0.95a4
#
DISCID=740b6d0a
DTITLE=L'Arc-en-Ciel - Heart
DYEAR=1998
DGENRE=Japanese Rock
TTITLE0=Loreley
TTITLE1=Winter Fall
TTITLE2=Singin' in the Rain
TTITLE3=Shout at the Devil
TTITLE4=Niji (Album Version)
TTITLE5=Birth!
TTITLE6=Promised Land
TTITLE7=Fate
TTITLE8=Milky Way
TTITLE9=Anata
EXTD=YEAR: 1998
EXTT0=
EXTT1=
EXTT2=
EXTT3=
EXTT4=
EXTT5=
EXTT6=
EXTT7=
EXTT8=
EXTT9=
PLAYORDER=
